<svg xmlns="http://www.w3.org/2000/svg" width="32" height="32" viewBox="0 0 24 24"><path fill="currentColor" d="M22 7.82a1.3 1.3 0 0 0-.19-.57a.9.9 0 0 0-.16-.2L16.26 1.6a.9.9 0 0 0-.2-.16A1.3 1.3 0 0 0 15.5 1h-9A2.53 2.53 0 0 0 4 3.5v17A2.53 2.53 0 0 0 6.5 23h11a2.53 2.53 0 0 0 2.5-2.5V8q0-.09-.01-.18" opacity=".5"/><path fill="currentColor" d="M15.5 1v4.19A2.31 2.31 0 0 0 17.81 7.5H22l-5.45-5.45a.9.9 0 0 0-.2-.16A1.3 1.3 0 0 0 15.79 1zM14.75 14h-1.5V9.75a.75.75 0 0 0-1.5 0V14h-1.5a.75.75 0 0 0-.53 1.28l2.25 2.25a.75.75 0 0 0 1.06 0l2.25-2.25A.75.75 0 0 0 14.75 14"/></svg>
